<?xml version="1.0" encoding="UTF-8"?>
<!DOCTYPE svg PUBLIC "-//W3C//DTD SVG 1.1//EN" "http://www.w3.org/Graphics/SVG/1.1/DTD/svg11.dtd">

<svg xmlns="http://www.w3.org/2000/svg" xmlns:xlink="http://www.w3.org/1999/xlink" width="121.9px" height="162.5px" viewbox="0 0 121.9 162.5" version="1.1">
  <title>TPS61099_BOOST_YFF_A_top: null</title>
  <desc>TPS61099_BOOST_YFF_A WebTHERM&amp;reg; Board Layout file</desc>
<defs>
<g id="1206_190">
  <g>
  	<rect x="0.5" y="0.5" fill="#5B5B5B" stroke="#000000" width="13" height="7"/>
  	<rect x="0.5" y="0.5" fill="#C6C6C6" stroke="#000000" width="3" height="7"/>
  	<rect x="10.5" y="0.501" fill="#C6C6C6" stroke="#000000" width="3" height="6.999"/>
  </g>
</g>
<g id="1008">
  <g id="MASK" display="none">
  	<g display="inline">
  		<rect x="0.5" y="0.5" stroke="#000000" width="10" height="7.999"/>
  		<rect x="0.5" y="0.5" stroke="#000000" width="2.308" height="7.999"/>
  		<rect x="8.192" y="0.502" stroke="#000000" width="2.308" height="7.998"/>
  	</g>
  </g>
  <g id="COLOR">
  	<g>
  		<rect x="0.5" y="0.5" fill="#5B5B5B" stroke="#000000" width="10" height="7.999"/>
  		<rect x="0.5" y="0.5" fill="#C6C6C6" stroke="#000000" width="2.308" height="7.999"/>
  		<rect x="8.192" y="0.502" fill="#C6C6C6" stroke="#000000" width="2.308" height="7.998"/>
  	</g>
  </g>
  <g id="OUTLINE" display="none">
  	<g display="inline">
  		<rect x="0.5" y="0.5" fill="none" stroke="#000000" width="10" height="7.999"/>
  		<rect x="0.5" y="0.5" fill="none" stroke="#000000" width="2.308" height="7.999"/>
  		<rect x="8.192" y="0.502" fill="none" stroke="#000000" width="2.308" height="7.998"/>
  	</g>
  </g>
</g>
<g id="0402">
  <g id="MASK" display="none">
  	<g display="inline">
  		<rect x="0.125" y="0.125" width="3.752" height="1.757"/>
  		<path d="M3.752,0.25v1.507H0.25V0.25H3.752 M4.002,0H0v2.007h4.002V0L4.002,0z"/>
  	</g>
  </g>
  <g id="COLOR">
  	<rect fill="#CBCBCB" width="4.002" height="2.007"/>
  	<rect x="1.008" fill="#363636" width="1.986" height="2.007"/>
  </g>
  <g id="OUTLINE">
  	<g>
  		<path d="M3.752,0.25v1.507H0.25V0.25H3.752 M4.002,0H0v2.007h4.002V0L4.002,0z"/>
  	</g>
  	<g>
  		<path d="M2.744,0.25v1.507H1.258V0.25H2.744 M2.994,0H1.008v2.007h1.986V0L2.994,0z"/>
  	</g>
  </g>
</g>
<g id="0201">
  <g id="Mask" display="none">
  	<rect x="0.5" y="0.5" display="inline" stroke="#000000" width="2.4" height="1.2"/>
  </g>
  <g id="Color">
  	<rect x="0.5" y="0.5" fill="#404040" stroke="#000000" width="2.4" height="1.2"/>
  </g>
  <g id="Outline" display="none">
  	<rect x="0.5" y="0.5" display="inline" fill="none" stroke="#000000" width="2.4" height="1.2"/>
  </g>
</g>
<g id="YFF0006AFAD">
  <g id="Mask" style="display:none;">
  	<g style="display:inline;">
  		<polygon points="0,4.854 0.05,0 3.536,0.05 3.486,4.854 		"/>
  		<path d="M3.436,0.1v4.704H0.1V0.1H3.436 M3.536,0H0v4.904h3.536V0L3.536,0z"/>
  	</g>
  	<g style="display:inline;">
  		<circle cx="0.5" cy="0.5" r="0.2"/>
  		<path d="M0.5,0.35c0.083,0,0.15,0.067,0.15,0.15S0.583,0.65,0.5,0.65S0.35,0.583,0.35,0.5S0.417,0.35,0.5,0.35 M0.5,0.25
  			c-0.138,0-0.25,0.112-0.25,0.25S0.362,0.75,0.5,0.75S0.75,0.638,0.75,0.5S0.638,0.25,0.5,0.25L0.5,0.25z"/>
  	</g>
  </g>
  <g id="Outline" style="display:none;">
  	<g style="display:inline;">
  		<path d="M3.436,0.1v4.704H0.1V0.1H3.436 M3.536,0H0v4.904h3.536V0L3.536,0z"/>
  	</g>
  	<g style="display:inline;">
  		<path d="M0.5,0.35c0.083,0,0.15,0.067,0.15,0.15S0.583,0.65,0.5,0.65S0.35,0.583,0.35,0.5S0.417,0.35,0.5,0.35 M0.5,0.25
  			c-0.138,0-0.25,0.112-0.25,0.25S0.362,0.75,0.5,0.75S0.75,0.638,0.75,0.5S0.638,0.25,0.5,0.25L0.5,0.25z"/>
  	</g>
  </g>
  <g id="Color">
  	<g>
  		<polygon style="fill:#4D4D4D;" points="0,4.854 0.05,0 3.536,0.05 3.486,4.854 		"/>
  		<path d="M3.436,0.1v4.704H0.1V0.1H3.436 M3.536,0H0v4.904h3.536V0L3.536,0z"/>
  	</g>
  	<g>
  		<circle style="fill:#4D4D4D;" cx="0.5" cy="0.5" r="0.2"/>
  		<path d="M0.5,0.35c0.083,0,0.15,0.067,0.15,0.15S0.583,0.65,0.5,0.65S0.35,0.583,0.35,0.5S0.417,0.35,0.5,0.35 M0.5,0.25
  			c-0.138,0-0.25,0.112-0.25,0.25S0.362,0.75,0.5,0.75S0.75,0.638,0.75,0.5S0.638,0.25,0.5,0.25L0.5,0.25z"/>
  	</g>
  </g>
</g>
<g id="0805">
  <g id="MASK" style="display:none;">
  	<g style="display:inline;">
  		<rect x="0.279" y="0.279" width="7.442" height="4.442"/>
  		<path d="M7.442,0.558v3.884H0.558V0.558H7.442 M8,0H0v5h8V0L8,0z"/>
  	</g>
  </g>
  <g id="COLOR">
  	<rect style="fill:#CBCBCB;" width="8" height="5"/>
  	<rect x="1.75" style="fill:#363636;" width="4.5" height="5"/>
  </g>
  <g id="OUTLINE" style="display:none;">
  	<g style="display:inline;">
  		<path d="M7.442,0.558v3.884H0.558V0.558H7.442 M8,0H0v5h8V0L8,0z"/>
  	</g>
  	<g style="display:inline;">
  		<path d="M5.656,0.594v3.812H2.344V0.594H5.656 M6.25,0h-4.5v5h4.5V0L6.25,0z"/>
  	</g>
  </g>
</g>
</defs>
<g id="boardComps">
  <g id="topview_images">
    <rect x="102.0" y="58.0" width="6.0" height="6.0" transform="rotate(-270.0 105.0 61.0)" name="0_GND1_TP-1502" style="fill:white;stroke:black;stroke-width:1;" />
    <rect x="102.0" y="95.0" width="6.0" height="6.0" transform="rotate(-270.0 105.0 98.0)" name="1_VOUT_TP-1502" style="fill:white;stroke:black;stroke-width:1;" />
    <rect x="81.0" y="18.0" width="6.0" height="6.0" transform="rotate(-270.0 84.0 21.0)" name="2_GND_TP-1502" style="fill:white;stroke:black;stroke-width:1;" />
    <rect x="26.0" y="18.0" width="6.0" height="6.0" transform="rotate(-270.0 30.0 21.0)" name="3_VIN_TP-1502" style="fill:white;stroke:black;stroke-width:1;" />
    <use x="71.0" y="76.0" width="14.0" height="8.0" transform="rotate(-90.0 78.0 80.0)" name="5_Cout_1206_190" xlink:href="#1206_190" />
    <use x="41.0" y="74.0" width="11.0" height="9.0" transform="rotate(-90.0 47.0 78.0)" name="6_L1_1008" xlink:href="#1008" />
    <use x="60.0" y="91.0" width="4.0" height="2.0" name="7_Rfbt_0402" xlink:href="#0402" />
    <use x="53.0" y="100.0" width="3.0" height="2.0" transform="rotate(-180.0 55.0 101.0)" name="8_Rfbb_0201" xlink:href="#0201" />
    <use x="56.0" y="78.0" width="3.0" height="4.0" name="9_U1_YFF0006AFAD" xlink:href="#YFF0006AFAD" />
    <use x="54.0" y="58.0" width="8.0" height="5.0" name="10_Cin_0805" xlink:href="#0805" />
  </g>
</g>
</svg>
