<?xml version="1.0" encoding="UTF-8"?>
<!DOCTYPE svg PUBLIC "-//W3C//DTD SVG 1.1//EN" "http://www.w3.org/Graphics/SVG/1.1/DTD/svg11.dtd">

<svg xmlns="http://www.w3.org/2000/svg" xmlns:xlink="http://www.w3.org/1999/xlink" width="121.9px" height="162.5px" viewbox="0 0 121.9 162.5" version="1.1">
  <title>TPS61099_BOOST_YFF_A_bottom: null</title>
  <desc>TPS61099_BOOST_YFF_A WebTHERM&amp;reg; Board Layout file</desc>
  <g id="board" fill-opacity="1" transform="scale(0.1016,-0.1016) translate(0,-1600.0)">
    <rect x="0" y="0" width="1200" height="1600" stroke="#006600" stroke-width="0" fill="#006600" type="Fill" layer="PCB" />
    <polygon net="0" points="1130,80 50,80 50,1510 1130,1510" stroke-width="0.0" stroke="#ff9900" fill="#ff9900" stroke-linecap="round" stroke-linejoin="round" opacity="1.0" layer="BOTTOM" />
    <polygon net="0" points="298,1465 282,1463 268,1459 255,1452 243,1442 233,1430 226,1417 222,1403 220,1388 222,1372 226,1358 233,1345 243,1333 255,1323 268,1316 282,1312 298,1310 313,1312 327,1316 340,1323 352,1333 362,1345 369,1358 373,1372 375,1388 373,1403 369,1417 362,1430 352,1442 340,1452 327,1459 313,1463" stroke-width="0.0" stroke="#006600" fill="#006600" stroke-linecap="round" stroke-linejoin="round" opacity="1.0" layer="BOTTOM" />
    <polygon net="0" points="609,864 603,863 599,860 596,856 595,851 595,717 584,705 516,705 511,704 507,701 504,697 503,692 504,687 507,683 511,680 516,679 589,679 594,680 598,683 598,683 598,683 618,702 621,707 622,712 622,851 621,856 618,860 614,863" stroke-width="0.0" stroke="#006600" fill="#006600" stroke-linecap="round" stroke-linejoin="round" opacity="1.0" layer="BOTTOM" />
    <polygon net="0" points="1038,707 1022,705 1008,701 995,694 983,684 973,672 966,659 962,645 960,630 962,614 966,600 973,587 983,575 995,565 1008,558 1022,554 1038,552 1053,554 1067,558 1080,565 1092,575 1102,587 1109,600 1113,614 1115,630 1113,645 1109,659 1102,672 1092,684 1080,694 1067,701 1053,705" stroke-width="0.0" stroke="#006600" fill="#006600" stroke-linecap="round" stroke-linejoin="round" opacity="1.0" layer="BOTTOM" />
    <line net="0" x1="609" y1="712" x2="609" y2="851" stroke-width="10" stroke="#ff9900" stroke-linecap="round" stroke-linejoin="round" opacity="1.0" layer="BOTTOM" />
    <line net="0" x1="516" y1="692" x2="589" y2="692" stroke-width="10" stroke="#ff9900" stroke-linecap="round" stroke-linejoin="round" opacity="1.0" layer="BOTTOM" />
    <line net="0" x1="589" y1="692" x2="609" y2="712" stroke-width="10" stroke="#ff9900" stroke-linecap="round" stroke-linejoin="round" opacity="1.0" layer="BOTTOM" />
    <circle net="0" cx="918" cy="1226" r="12" r1="17" r2="7" stroke-width="10" stroke="#ff9900" fill="#ffffff" opacity="1" layer="MULTILAYER" />
    <circle net="0" cx="842" cy="1226" r="12" r1="17" r2="7" stroke-width="10" stroke="#ff9900" fill="#ffffff" opacity="1" layer="MULTILAYER" />
    <circle net="0" cx="842" cy="1148" r="12" r1="17" r2="7" stroke-width="10" stroke="#ff9900" fill="#ffffff" opacity="1" layer="MULTILAYER" />
    <circle net="0" cx="431" cy="459" r="12" r1="17" r2="7" stroke-width="10" stroke="#ff9900" fill="#ffffff" opacity="1" layer="MULTILAYER" />
    <circle net="0" cx="431" cy="376" r="12" r1="17" r2="7" stroke-width="10" stroke="#ff9900" fill="#ffffff" opacity="1" layer="MULTILAYER" />
    <circle net="0" cx="431" cy="292" r="12" r1="17" r2="7" stroke-width="10" stroke="#ff9900" fill="#ffffff" opacity="1" layer="MULTILAYER" />
    <circle net="0" cx="431" cy="209" r="12" r1="17" r2="7" stroke-width="10" stroke="#ff9900" fill="#ffffff" opacity="1" layer="MULTILAYER" />
    <circle net="0" cx="682" cy="209" r="12" r1="17" r2="7" stroke-width="10" stroke="#ff9900" fill="#ffffff" opacity="1" layer="MULTILAYER" />
    <circle net="0" cx="682" cy="292" r="12" r1="17" r2="7" stroke-width="10" stroke="#ff9900" fill="#ffffff" opacity="1" layer="MULTILAYER" />
    <circle net="0" cx="682" cy="376" r="12" r1="17" r2="7" stroke-width="10" stroke="#ff9900" fill="#ffffff" opacity="1" layer="MULTILAYER" />
    <circle net="0" cx="682" cy="459" r="12" r1="17" r2="7" stroke-width="10" stroke="#ff9900" fill="#ffffff" opacity="1" layer="MULTILAYER" />
    <circle net="0" cx="598" cy="459" r="12" r1="17" r2="7" stroke-width="10" stroke="#ff9900" fill="#ffffff" opacity="1" layer="MULTILAYER" />
    <circle net="0" cx="598" cy="376" r="12" r1="17" r2="7" stroke-width="10" stroke="#ff9900" fill="#ffffff" opacity="1" layer="MULTILAYER" />
    <circle net="0" cx="598" cy="292" r="12" r1="17" r2="7" stroke-width="10" stroke="#ff9900" fill="#ffffff" opacity="1" layer="MULTILAYER" />
    <circle net="0" cx="598" cy="209" r="12" r1="17" r2="7" stroke-width="10" stroke="#ff9900" fill="#ffffff" opacity="1" layer="MULTILAYER" />
    <circle net="0" cx="514" cy="209" r="12" r1="17" r2="7" stroke-width="10" stroke="#ff9900" fill="#ffffff" opacity="1" layer="MULTILAYER" />
    <circle net="0" cx="514" cy="292" r="12" r1="17" r2="7" stroke-width="10" stroke="#ff9900" fill="#ffffff" opacity="1" layer="MULTILAYER" />
    <circle net="0" cx="514" cy="376" r="12" r1="17" r2="7" stroke-width="10" stroke="#ff9900" fill="#ffffff" opacity="1" layer="MULTILAYER" />
    <circle net="0" cx="514" cy="459" r="12" r1="17" r2="7" stroke-width="10" stroke="#ff9900" fill="#ffffff" opacity="1" layer="MULTILAYER" />
    <circle net="0" cx="766" cy="1226" r="12" r1="17" r2="7" stroke-width="10" stroke="#ff9900" fill="#ffffff" opacity="1" layer="MULTILAYER" />
    <circle net="0" cx="918" cy="1148" r="12" r1="17" r2="7" stroke-width="10" stroke="#ff9900" fill="#ffffff" opacity="1" layer="MULTILAYER" />
    <circle net="0" cx="918" cy="1069" r="12" r1="17" r2="7" stroke-width="10" stroke="#ff9900" fill="#ffffff" opacity="1" layer="MULTILAYER" />
    <circle net="0" cx="918" cy="992" r="12" r1="17" r2="7" stroke-width="10" stroke="#ff9900" fill="#ffffff" opacity="1" layer="MULTILAYER" />
    <circle net="0" cx="842" cy="1069" r="12" r1="17" r2="7" stroke-width="10" stroke="#ff9900" fill="#ffffff" opacity="1" layer="MULTILAYER" />
    <circle net="0" cx="842" cy="992" r="12" r1="17" r2="7" stroke-width="10" stroke="#ff9900" fill="#ffffff" opacity="1" layer="MULTILAYER" />
    <circle net="0" cx="766" cy="1148" r="12" r1="17" r2="7" stroke-width="10" stroke="#ff9900" fill="#ffffff" opacity="1" layer="MULTILAYER" />
    <circle net="0" cx="766" cy="1069" r="12" r1="17" r2="7" stroke-width="10" stroke="#ff9900" fill="#ffffff" opacity="1" layer="MULTILAYER" />
    <circle net="0" cx="766" cy="992" r="12" r1="17" r2="7" stroke-width="10" stroke="#ff9900" fill="#ffffff" opacity="1" layer="MULTILAYER" />
    <circle net="0" cx="609" cy="851" r="7" r1="10" r2="5" stroke-width="5" stroke="#ff9900" fill="#ffffff" opacity="1" layer="MULTILAYER" />
    <circle net="0" cx="516" cy="692" r="7" r1="10" r2="5" stroke-width="5" stroke="#ff9900" fill="#ffffff" opacity="1" layer="MULTILAYER" />
    <circle net="0" cx="1038" cy="996" r="58.8" r1="68" r2="49" stroke-width="19" stroke="#ff9900" fill="#ffffff" opacity="1" layer="MULTILAYER" />
    <circle net="4" cx="1038" cy="630" r="58.8" r1="68" r2="49" stroke-width="19" stroke="#ff9900" fill="#ffffff" opacity="1" layer="MULTILAYER" />
    <circle net="0" cx="837" cy="1388" r="58.8" r1="68" r2="49" stroke-width="19" stroke="#ff9900" fill="#ffffff" opacity="1" layer="MULTILAYER" />
    <circle net="1" cx="298" cy="1388" r="58.8" r1="68" r2="49" stroke-width="19" stroke="#ff9900" fill="#ffffff" opacity="1" layer="MULTILAYER" />
  </g>
</svg>

